<svg width="166" height="48" viewBox="0 0 166 48" fill="none" xmlns="http://www.w3.org/2000/svg">
<path d="M73.592 7.56C75.5547 7.56 77.2827 7.86933 78.776 8.488C80.2907 9.08533 81.6027 9.97067 82.712 11.144L80.056 14.696C79.1387 13.736 78.1467 13.0213 77.08 12.552C76.0347 12.0613 74.84 11.816 73.496 11.816C72.7067 11.816 72.0667 11.9013 71.576 12.072C71.0853 12.2427 70.7333 12.4773 70.52 12.776C70.3067 13.0747 70.2 13.416 70.2 13.8C70.2 14.248 70.4027 14.632 70.808 14.952C71.2347 15.2507 71.9173 15.5067 72.856 15.72L76.408 16.52C78.52 17.0107 80.0667 17.7253 81.048 18.664C82.0293 19.6027 82.52 20.8507 82.52 22.408C82.52 23.9013 82.136 25.1707 81.368 26.216C80.6 27.24 79.544 28.0187 78.2 28.552C76.856 29.064 75.32 29.32 73.592 29.32C72.184 29.32 70.84 29.1707 69.56 28.872C68.28 28.552 67.128 28.104 66.104 27.528C65.08 26.952 64.216 26.2907 63.512 25.544L66.168 21.864C66.7013 22.4827 67.352 23.0373 68.12 23.528C68.9093 23.9973 69.7627 24.3707 70.68 24.648C71.6187 24.9253 72.568 25.064 73.528 25.064C74.2747 25.064 74.8933 24.9893 75.384 24.84C75.896 24.6907 76.2693 24.4667 76.504 24.168C76.7387 23.8693 76.856 23.5173 76.856 23.112C76.856 22.664 76.696 22.2907 76.376 21.992C76.056 21.672 75.448 21.4053 74.552 21.192L70.648 20.328C69.4533 20.0507 68.3867 19.688 67.448 19.24C66.5307 18.7707 65.8053 18.152 65.272 17.384C64.7387 16.5947 64.472 15.6133 64.472 14.44C64.472 13.1173 64.8347 11.944 65.56 10.92C66.2853 9.87467 67.3307 9.05333 68.696 8.456C70.0613 7.85867 71.6933 7.56 73.592 7.56ZM93.161 12.68C94.7823 12.68 96.1263 12.9147 97.193 13.384C98.281 13.832 99.1237 14.44 99.721 15.208C100.34 15.9547 100.724 16.7653 100.873 17.64L95.849 19.304C95.6997 18.3867 95.4223 17.704 95.017 17.256C94.633 16.7867 94.0677 16.552 93.321 16.552C92.6383 16.552 92.0623 16.712 91.593 17.032C91.145 17.3307 90.8037 17.8213 90.569 18.504C90.3343 19.1653 90.217 20.0187 90.217 21.064C90.217 22.1093 90.345 22.9627 90.601 23.624C90.857 24.264 91.2197 24.7333 91.689 25.032C92.1583 25.3093 92.713 25.448 93.353 25.448C93.8863 25.448 94.3237 25.352 94.665 25.16C95.0277 24.9467 95.3263 24.648 95.561 24.264C95.7957 23.88 95.945 23.4107 96.009 22.856L100.905 24.424C100.756 25.3627 100.35 26.2053 99.689 26.952C99.049 27.6773 98.1957 28.2533 97.129 28.68C96.0623 29.1067 94.8143 29.32 93.385 29.32C91.6357 29.32 90.1103 29 88.809 28.36C87.5077 27.6987 86.505 26.7493 85.801 25.512C85.097 24.2533 84.745 22.7493 84.745 21C84.745 19.2507 85.097 17.7573 85.801 16.52C86.505 15.2613 87.4863 14.312 88.745 13.672C90.025 13.0107 91.497 12.68 93.161 12.68ZM103.733 29V13H108.533L108.757 16.456C109.163 15.2613 109.76 14.3333 110.549 13.672C111.36 13.0107 112.384 12.68 113.621 12.68C114.027 12.68 114.368 12.712 114.645 12.776C114.944 12.84 115.179 12.9253 115.349 13.032L114.805 17.512C114.592 17.4267 114.315 17.3627 113.973 17.32C113.653 17.256 113.259 17.224 112.789 17.224C112.149 17.224 111.552 17.3627 110.997 17.64C110.443 17.9173 109.995 18.3333 109.653 18.888C109.333 19.4213 109.173 20.104 109.173 20.936V29H103.733ZM122.891 29.32C121.803 29.32 120.843 29.1387 120.011 28.776C119.201 28.392 118.561 27.784 118.091 26.952C117.622 26.12 117.387 25.032 117.387 23.688V13H122.827V22.408C122.827 23.432 123.03 24.1467 123.435 24.552C123.841 24.9573 124.417 25.16 125.163 25.16C125.547 25.16 125.91 25.096 126.251 24.968C126.593 24.8187 126.891 24.6053 127.147 24.328C127.403 24.0293 127.595 23.656 127.723 23.208C127.873 22.7387 127.947 22.1947 127.947 21.576V13H133.387V29H128.523L128.363 25.992C127.851 27.1227 127.137 27.9653 126.219 28.52C125.302 29.0533 124.193 29.32 122.891 29.32ZM143.984 7.912V23.304C143.984 24.072 144.165 24.6267 144.528 24.968C144.912 25.288 145.434 25.448 146.096 25.448C146.608 25.448 147.045 25.3947 147.408 25.288C147.792 25.16 148.133 24.9787 148.432 24.744L149.008 28.104C148.474 28.488 147.802 28.7867 146.992 29C146.181 29.2133 145.349 29.32 144.496 29.32C143.28 29.32 142.224 29.1493 141.328 28.808C140.453 28.4667 139.77 27.9227 139.28 27.176C138.81 26.4293 138.565 25.4373 138.544 24.2V9.416L143.984 7.912ZM148.752 13V16.872H135.792V13H148.752ZM150.433 29V25.672L156.801 18.44L158.497 16.744L155.969 16.808H150.497V13H164.513V16.328L158.241 23.496L156.481 25.256L159.297 25.192H164.801V29H150.433Z" fill="url(#paint0_linear_1_21)"/>
<path d="M24.4201 34.0922V41.3442C24.4201 41.9742 23.9121 42.5002 23.3031 42.5002C23.1555 42.4992 23.0096 42.4683 22.8742 42.4096C22.7388 42.3508 22.6166 42.2653 22.5151 42.1582L11.4951 30.8082C9.33607 28.6002 8.14307 25.5782 8.14307 22.4522C8.14307 16.0142 13.1961 10.7852 19.4431 10.7852H31.2001C37.4471 10.7852 42.5001 16.0152 42.5001 22.4522C42.5001 28.8892 37.4471 34.1182 31.2001 34.1182H24.4201V34.0922Z" fill="black" stroke="#3B247B" stroke-linecap="round" stroke-linejoin="round"/>
<path d="M16.8 29.286C10.553 29.286 5.5 23.956 5.5 17.393C5.5 10.83 10.553 5.5 16.8 5.5H28.557C34.804 5.5 39.857 10.83 39.857 17.393C39.857 23.956 34.804 29.286 28.557 29.286H16.8Z" fill="#247B7B" stroke="black" stroke-linecap="round" stroke-linejoin="round"/>
<g clip-path="url(#clip0_1_21)">
<path d="M28.0046 14.1152C27.9469 14.0454 27.8745 13.9892 27.7926 13.9506C27.7107 13.912 27.6212 13.892 27.5307 13.892H27.5146H27.5155H25.9384L26.3757 11.764C26.3974 11.6699 26.3977 11.5721 26.3764 11.4779C26.3552 11.3837 26.3129 11.2955 26.2528 11.2199L26.2537 11.2213C26.1958 11.1515 26.1233 11.0954 26.0412 11.0569C25.9591 11.0184 25.8696 10.9985 25.7789 10.9985H25.7638H25.7647C25.3522 11.0118 25.0117 11.3033 24.9237 11.6906L24.9223 11.6966L24.8036 12.275C24.7999 12.2897 24.7935 12.3034 24.7903 12.3181L24.4658 13.8925H21.8107L22.2479 11.7644C22.2697 11.6703 22.27 11.5725 22.2487 11.4783C22.2274 11.3841 22.1852 11.296 22.1251 11.2204L22.126 11.2217C22.0681 11.152 21.9955 11.0959 21.9134 11.0574C21.8314 11.0188 21.7418 10.9989 21.6512 10.999H21.636H21.6369C21.2244 11.0123 20.8839 11.3038 20.7959 11.6911L20.7945 11.697L20.6708 12.2988C20.6708 12.3057 20.6662 12.3117 20.6648 12.3181L20.3431 13.8925H18.6257C18.2132 13.9057 17.8727 14.1968 17.7842 14.5841L17.7828 14.59C17.7609 14.6842 17.7605 14.782 17.7817 14.8763C17.8029 14.9706 17.8451 15.0588 17.9052 15.1345L17.9043 15.1332C18.0179 15.2697 18.188 15.3564 18.3787 15.3564H18.3942H18.3933H20.0419L19.5735 17.6343H17.8543C17.4418 17.6476 17.1013 17.9391 17.0128 18.3264L17.0114 18.3323C16.9899 18.4262 16.9897 18.5238 17.0109 18.6178C17.032 18.7118 17.0741 18.7999 17.1338 18.8755L17.1329 18.8741C17.247 19.0107 17.4171 19.0973 17.6077 19.0973H17.6233H17.6224H19.271L18.831 21.2368C18.8092 21.3309 18.809 21.4287 18.8302 21.5229C18.8515 21.617 18.8938 21.7052 18.9539 21.7808L18.9529 21.7795C19.0671 21.916 19.2371 22.0027 19.4278 22.0027H19.4429H19.442C19.639 21.9964 19.8284 21.9252 19.9806 21.8C20.1328 21.6748 20.2393 21.5027 20.2835 21.3106L20.2849 21.3046L20.7386 19.0982H23.3951L22.9551 21.2377C22.9333 21.3318 22.9331 21.4296 22.9543 21.5238C22.9756 21.618 23.0179 21.7061 23.0779 21.7817L23.077 21.7804C23.1912 21.917 23.3612 22.0031 23.5519 22.0031H23.567H23.5661C23.763 21.9969 23.9524 21.9257 24.1046 21.8005C24.2567 21.6752 24.3631 21.5031 24.4071 21.311L24.4085 21.3051L24.8622 19.0987H26.5122C26.7092 19.0925 26.8985 19.0212 27.0508 18.8961C27.203 18.771 27.3095 18.599 27.3537 18.407L27.3551 18.4011C27.3777 18.3071 27.3786 18.2093 27.3577 18.1149C27.3368 18.0206 27.2947 17.9322 27.2346 17.8566L27.2355 17.858C27.1775 17.7881 27.1049 17.7319 27.0227 17.6933C26.9406 17.6548 26.8509 17.6348 26.7602 17.6347H26.7437H26.7446H25.1647L25.6332 15.3568H27.2832C27.4802 15.3506 27.6696 15.2793 27.8218 15.1541C27.974 15.0289 28.0805 14.8568 28.1247 14.6647L28.126 14.6588C28.1479 14.5646 28.1481 14.4668 28.1269 14.3725C28.1056 14.2782 28.0633 14.1899 28.0032 14.1143L28.0041 14.1157L28.0046 14.1152ZM21.042 17.6329L21.5104 15.355H24.1669L23.6985 17.6329H21.042Z" fill="#3B247B"/>
</g>
<defs>
<linearGradient id="paint0_linear_1_21" x1="66.0294" y1="2" x2="159.334" y2="49.9663" gradientUnits="userSpaceOnUse">
<stop stop-color="#247B7B"/>
<stop offset="1" stop-color="#3B247B"/>
</linearGradient>
<clipPath id="clip0_1_21">
<rect width="11" height="11" fill="white" transform="translate(17 11)"/>
</clipPath>
</defs>
</svg>
